<svg version="1.2" baseProfile="tiny-ps" xmlns="http://www.w3.org/2000/svg" viewBox="0 0 320 241" width="320" height="241">
	<title>Field-svg</title>
	<style>
		tspan { white-space:pre }
		.shp0 { fill: #ffffff } 
	</style>
	<path id="Layer 3" class="shp0" d="M152.5 174.94C152.31 175.19 150.89 175.52 149.33 175.69C147.77 175.85 144.93 176.22 143 176.5C141.07 176.78 136.35 178.52 132.5 180.36C128.65 182.21 122.62 185.91 119.09 188.61C115.57 191.3 110.74 195.97 108.35 199C105.96 202.03 102.46 207.43 100.57 211C98.69 214.57 96.91 218.63 96.62 220C96.34 221.38 95.9 223.4 95.65 224.5C95.4 225.6 95.09 226.95 94.98 227.5C94.86 228.05 94.82 230.86 94.88 233.75C94.98 238.29 95.27 239 97 239C98.7 239 99.05 238.21 99.36 233.75C99.56 230.86 99.96 227.6 100.26 226.5C100.56 225.4 101.78 222.03 102.97 219C104.16 215.97 106.32 211.47 107.75 209C109.19 206.53 112.65 202.07 115.43 199.1C118.22 196.12 123.2 191.94 126.5 189.81C129.8 187.67 134.97 185 138 183.87C141.03 182.74 144.4 181.58 145.5 181.3C146.6 181.02 148.85 180.55 150.5 180.25C152.15 179.95 156.43 179.7 160 179.7C163.57 179.7 167.85 179.95 169.5 180.25C171.15 180.55 173.4 181.02 174.5 181.3C175.6 181.58 178.97 182.74 182 183.87C185.03 185 190.2 187.67 193.5 189.81C196.8 191.94 201.78 196.12 204.57 199.1C207.35 202.07 210.81 206.53 212.25 209C213.68 211.47 215.84 215.97 217.03 219C218.22 222.03 219.44 225.4 219.74 226.5C220.05 227.6 220.38 230.3 220.48 232.5C220.58 234.7 220.74 237.06 220.83 237.75C220.93 238.44 221.9 239 223 239C224.57 239 225.02 238.3 225.11 235.75C225.17 233.96 225.2 231.38 225.18 230C225.15 228.63 224.86 226.38 224.52 225C224.18 223.63 223.66 221.38 223.38 220C223.09 218.63 221.31 214.57 219.43 211C217.54 207.43 214.04 202.03 211.65 199C209.26 195.97 204.43 191.3 200.91 188.61C197.38 185.91 191.35 182.21 187.5 180.36C183.65 178.52 178.93 176.78 177 176.5C175.07 176.22 172.15 175.78 170.5 175.54C168.85 175.29 164.2 174.96 160.17 174.8C156.13 174.63 152.68 174.7 152.5 174.94ZM94.88 248.25C94.82 251.14 94.86 253.95 94.98 254.5C95.09 255.05 95.4 256.4 95.65 257.5C95.9 258.6 96.34 260.63 96.62 262C96.91 263.38 98.69 267.43 100.57 271C102.46 274.57 105.96 279.98 108.35 283C110.74 286.02 115.57 290.7 119.09 293.39C122.62 296.09 128.65 299.79 132.5 301.64C136.35 303.48 141.07 305.22 143 305.5C144.93 305.78 147.85 306.22 149.5 306.47C151.15 306.72 155.88 306.92 160 306.92C164.13 306.92 168.85 306.72 170.5 306.47C172.15 306.22 175.07 305.78 177 305.5C178.93 305.22 183.65 303.48 187.5 301.64C191.35 299.79 197.38 296.09 200.91 293.39C204.43 290.7 209.26 286.02 211.65 283C214.04 279.98 217.54 274.57 219.43 271C221.31 267.43 223.09 263.38 223.38 262C223.66 260.63 224.17 258.38 224.51 257C224.85 255.63 225.16 253.15 225.2 251.5C225.25 249.85 225.22 247.26 225.14 245.75C225.04 243.71 224.48 243 223 243C221.3 243 220.95 243.79 220.64 248.25C220.44 251.14 220.04 254.4 219.74 255.5C219.44 256.6 218.22 259.98 217.03 263C215.84 266.02 213.68 270.52 212.25 273C210.81 275.48 207.35 279.93 204.57 282.9C201.78 285.88 196.8 290.06 193.5 292.19C190.2 294.33 185.03 297 182 298.13C178.97 299.26 175.6 300.42 174.5 300.7C173.4 300.98 171.15 301.45 169.5 301.75C167.85 302.05 163.57 302.3 160 302.3C156.43 302.3 152.15 302.05 150.5 301.75C148.85 301.45 146.6 300.98 145.5 300.7C144.4 300.42 141.03 299.26 138 298.13C134.97 297 129.8 294.33 126.5 292.19C123.2 290.06 118.22 285.88 115.43 282.9C112.65 279.93 109.19 275.48 107.75 273C106.32 270.52 104.16 266.02 102.97 263C101.78 259.98 100.56 256.6 100.26 255.5C99.96 254.4 99.57 251.14 99.38 248.25C99.1 243.76 98.76 243 97.02 243C95.26 243 94.98 243.68 94.88 248.25Z" />
	<path id="Layer 4" class="shp0" d="M101.73 22.75C101.96 44.91 102.03 45.56 104.23 47.75C105.48 48.98 107.63 50.22 109 50.5C110.38 50.78 133.32 51.01 160 51.01C186.68 51.01 209.63 50.78 211 50.5C212.38 50.22 214.52 48.98 215.77 47.75C217.97 45.56 218.04 44.91 218.27 22.75L218.5 0L213.5 0C213.95 31.47 213.65 40.52 213.05 42C212.49 43.38 210.9 45.06 209.52 45.75C207.61 46.7 195.59 47 160 47C124.41 47 112.39 46.7 110.48 45.75C109.1 45.06 107.51 43.38 106.95 42C106.35 40.52 106.05 31.47 106.22 19.75L106.5 0L101.5 0L101.73 22.75ZM0 241C0 242.99 0.67 243 160 243C319.33 243 320 242.99 320 241C320 239.01 319.33 239 160 239C0.67 239 0 239.01 0 241ZM111.67 430.73C111.57 430.85 110.38 431.19 109 431.48C107.63 431.77 105.48 433.02 104.23 434.25C102.03 436.44 101.96 437.09 101.73 459.25L101.5 482L106.5 482C106.05 450.53 106.35 441.48 106.95 440C107.51 438.63 109.1 436.94 110.48 436.25C112.39 435.3 124.41 435 160 435C195.59 435 207.61 435.3 209.52 436.25C210.9 436.94 212.49 438.63 213.05 440C213.65 441.48 213.95 450.53 213.78 462.25L213.5 482L218.5 482C218.04 437.09 217.97 436.44 215.77 434.25C214.52 433.02 212.38 431.78 211 431.5C209.63 431.22 186.75 430.88 160.17 430.75C133.58 430.61 111.76 430.6 111.67 430.73Z" />
</svg>