<svg version="1.2" baseProfile="tiny-ps" xmlns="http://www.w3.org/2000/svg" viewBox="0 0 320 241" width="320" height="241">
	<title>Field-svg</title>
	<style>
		tspan { white-space:pre }
		.shp0 { fill: #ffffff } 
	</style>
	<path id="Layer 3" class="shp0" d="M167.5 66.06C167.69 65.81 169.11 65.48 170.67 65.31C172.23 65.15 175.07 64.78 177 64.5C178.93 64.22 183.65 62.48 187.5 60.64C191.35 58.79 197.38 55.09 200.91 52.39C204.43 49.7 209.26 45.03 211.65 42C214.04 38.97 217.54 33.57 219.43 30C221.31 26.43 223.09 22.37 223.38 21C223.66 19.62 224.1 17.6 224.35 16.5C224.6 15.4 224.91 14.05 225.02 13.5C225.14 12.95 225.18 10.14 225.12 7.25C225.02 2.71 224.73 2 223 2C221.3 2 220.95 2.79 220.64 7.25C220.44 10.14 220.04 13.4 219.74 14.5C219.44 15.6 218.22 18.97 217.03 22C215.84 25.03 213.68 29.53 212.25 32C210.81 34.47 207.35 38.93 204.57 41.9C201.78 44.88 196.8 49.06 193.5 51.19C190.2 53.33 185.03 56 182 57.13C178.97 58.26 175.6 59.42 174.5 59.7C173.4 59.98 171.15 60.45 169.5 60.75C167.85 61.05 163.57 61.3 160 61.3C156.43 61.3 152.15 61.05 150.5 60.75C148.85 60.45 146.6 59.98 145.5 59.7C144.4 59.42 141.03 58.26 138 57.13C134.97 56 129.8 53.33 126.5 51.19C123.2 49.06 118.22 44.88 115.43 41.9C112.65 38.93 109.19 34.47 107.75 32C106.32 29.53 104.16 25.03 102.97 22C101.78 18.97 100.56 15.6 100.26 14.5C99.95 13.4 99.62 10.7 99.52 8.5C99.42 6.3 99.26 3.94 99.17 3.25C99.07 2.56 98.1 2 97 2C95.43 2 94.98 2.7 94.89 5.25C94.83 7.04 94.8 9.62 94.82 11C94.85 12.37 95.14 14.62 95.48 16C95.82 17.37 96.34 19.62 96.62 21C96.91 22.37 98.69 26.43 100.57 30C102.46 33.57 105.96 38.97 108.35 42C110.74 45.03 115.57 49.7 119.09 52.39C122.62 55.09 128.65 58.79 132.5 60.64C136.35 62.48 141.07 64.22 143 64.5C144.93 64.78 147.85 65.22 149.5 65.46C151.15 65.71 155.8 66.04 159.83 66.2C163.87 66.37 167.32 66.3 167.5 66.06ZM225.12 -7.25C225.18 -10.14 225.14 -12.95 225.02 -13.5C224.91 -14.05 224.6 -15.4 224.35 -16.5C224.1 -17.6 223.66 -19.63 223.38 -21C223.09 -22.38 221.31 -26.43 219.43 -30C217.54 -33.57 214.04 -38.98 211.65 -42C209.26 -45.02 204.43 -49.7 200.91 -52.39C197.38 -55.09 191.35 -58.79 187.5 -60.64C183.65 -62.48 178.93 -64.22 177 -64.5C175.07 -64.78 172.15 -65.22 170.5 -65.47C168.85 -65.72 164.12 -65.92 160 -65.92C155.87 -65.92 151.15 -65.72 149.5 -65.47C147.85 -65.22 144.93 -64.78 143 -64.5C141.07 -64.22 136.35 -62.48 132.5 -60.64C128.65 -58.79 122.62 -55.09 119.09 -52.39C115.57 -49.7 110.74 -45.02 108.35 -42C105.96 -38.98 102.46 -33.57 100.57 -30C98.69 -26.43 96.91 -22.38 96.62 -21C96.34 -19.63 95.83 -17.38 95.49 -16C95.15 -14.63 94.84 -12.15 94.8 -10.5C94.75 -8.85 94.78 -6.26 94.86 -4.75C94.96 -2.71 95.52 -2 97 -2C98.7 -2 99.05 -2.79 99.36 -7.25C99.56 -10.14 99.96 -13.4 100.26 -14.5C100.56 -15.6 101.78 -18.98 102.97 -22C104.16 -25.02 106.32 -29.52 107.75 -32C109.19 -34.48 112.65 -38.93 115.43 -41.9C118.22 -44.88 123.2 -49.06 126.5 -51.19C129.8 -53.33 134.97 -56 138 -57.13C141.03 -58.26 144.4 -59.42 145.5 -59.7C146.6 -59.98 148.85 -60.45 150.5 -60.75C152.15 -61.05 156.43 -61.3 160 -61.3C163.57 -61.3 167.85 -61.05 169.5 -60.75C171.15 -60.45 173.4 -59.98 174.5 -59.7C175.6 -59.42 178.97 -58.26 182 -57.13C185.03 -56 190.2 -53.33 193.5 -51.19C196.8 -49.06 201.78 -44.88 204.57 -41.9C207.35 -38.93 210.81 -34.48 212.25 -32C213.68 -29.52 215.84 -25.02 217.03 -22C218.22 -18.98 219.44 -15.6 219.74 -14.5C220.04 -13.4 220.43 -10.14 220.62 -7.25C220.9 -2.76 221.24 -2 222.98 -2C224.74 -2 225.02 -2.68 225.12 -7.25Z" />
	<path id="Layer 4" class="shp0" d="M218.27 218.25C218.04 196.09 217.97 195.44 215.77 193.25C214.52 192.02 212.37 190.78 211 190.5C209.62 190.22 186.68 189.99 160 189.99C133.32 189.99 110.37 190.22 109 190.5C107.62 190.78 105.48 192.02 104.23 193.25C102.03 195.44 101.96 196.09 101.73 218.25L101.5 241L106.5 241C106.05 209.53 106.35 200.48 106.95 199C107.51 197.62 109.1 195.94 110.48 195.25C112.39 194.3 124.41 194 160 194C195.59 194 207.61 194.3 209.52 195.25C210.9 195.94 212.49 197.62 213.05 199C213.65 200.48 213.95 209.53 213.78 221.25L213.5 241L218.5 241L218.27 218.25ZM320 0C320 -1.99 319.33 -2 160 -2C0.67 -2 0 -1.99 0 0C0 1.99 0.67 2 160 2C319.33 2 320 1.99 320 0ZM208.33 -189.73C208.43 -189.85 209.62 -190.19 211 -190.48C212.37 -190.77 214.52 -192.02 215.77 -193.25C217.97 -195.44 218.04 -196.09 218.27 -218.25L218.5 -241L213.5 -241C213.95 -209.53 213.65 -200.48 213.05 -199C212.49 -197.63 210.9 -195.94 209.52 -195.25C207.61 -194.3 195.59 -194 160 -194C124.41 -194 112.39 -194.3 110.48 -195.25C109.1 -195.94 107.51 -197.63 106.95 -199C106.35 -200.48 106.05 -209.53 106.22 -221.25L106.5 -241L101.5 -241C101.96 -196.09 102.03 -195.44 104.23 -193.25C105.48 -192.02 107.62 -190.78 109 -190.5C110.37 -190.22 133.25 -189.88 159.83 -189.75C186.42 -189.61 208.24 -189.6 208.33 -189.73Z" />
</svg>